<svg xmlns="http://www.w3.org/2000/svg" viewBox="0 0 32 32">
  <rect width="32" height="32" rx="6" fill="#0E0F12"/>
  <svg x="3" y="3" width="26" height="26" viewBox="0 0 32 32">
    <g fill="#F2F3F0">
      <path d="M6.11,31.82C1.23,27.73-1.17,21.42.71,15.15,4.26,3.33,18.95-1.16,30.05.98c.65.13,1.3.29,1.94.48l-3.09,5.72c-1-.21-2.01-.41-3.03-.52-8.92-.94-20.16,2.43-22.99,11.91-1.4,4.68.07,9.83,3.48,13.26h-.12"/>
      <path d="M8.68,31.82c-.27-.21-.53-.42-.78-.65-3.92-3.64-4.84-9.38-2.27-14.06,4.06-7.41,14.25-9.07,21.95-7.45l-2.62,4.86c-.85-.14-1.71-.26-2.57-.33-6.15-.5-14.18,1.55-16.09,8.15-.98,3.4.19,7.08,2.73,9.49"/>
      <path d="M10.45,31.82c-.33-.26-.81-.75-.98-.94-3.41-3.81-2.48-9.1,1.61-11.98,3.56-2.51,8.48-2.96,12.68-2.03l-1.91,3.5c-.57-.11-1.13-.2-1.7-.25-3.41-.29-7.49.48-9.84,3.11-2.31,2.58-1.86,6.24.53,8.58"/>
      <path d="M20.59,22.65l-1.32,2.44c-.18-.04-.98-.13-1.14-.14-1.22-.07-2.42.07-3.57.52-2.27.91-3.63,2.97-2.53,5.53.06.13.5.82.44.82h-.22c-1.38-1.52-2.12-3.58-1.33-5.64,1.4-3.6,6.46-4.54,9.67-3.54Z"/>
    </g>
  </svg>
</svg>
