<svg xmlns="http://www.w3.org/2000/svg" viewBox="0 0 100 100">
  <rect width="100" height="100" rx="18" fill="#F2F3F0"/>
  <svg x="24" y="22" width="52" height="56" viewBox="49 212 82 78">
    <g fill="#0E0F12">
      <path d="M66.14,285.4c-11-9.24-18.01-23.49-13.76-37.63,8.02-26.69,41.17-36.83,66.25-32.01,1.48.28,2.94.66,4.38,1.07l-6.98,12.92c-2.26-.48-4.54-.93-6.84-1.17-20.13-2.12-45.52,5.48-51.9,26.88-3.15,10.56,2.12,22.2,9.8,29.94"/>
      <path d="M70.39,285.4c-.6-.48-1.2-.95-1.76-1.47-8.85-8.21-10.92-21.19-5.13-31.75,9.17-16.72,32.17-20.49,49.56-16.82l-5.92,10.98c-1.92-.32-3.86-.59-5.81-.75-13.89-1.12-32.02,3.51-36.32,18.39-2.22,7.68.44,15.98,6.16,21.42"/>
      <path d="M74.38,285.4c-.74-.59-1.83-1.7-2.21-2.12-7.7-8.6-5.6-20.54,3.63-27.04,8.04-5.66,19.14-6.67,28.62-4.58l-4.31,7.91c-1.28-.24-2.55-.44-3.83-.55-7.71-.67-16.91,1.09-22.22,7.01-5.21,5.81-4.21,14.1,1.19,19.36"/>
      <path d="M77.84,285.4c-.46-.36-1.13-1.05-1.37-1.31-4.76-5.32-3.46-12.7,2.25-16.72,4.97-3.5,12.79-3.88,18.65-2.59l-2.6,4.92c-.78-.24-2.59-.55-3.39-.62-4.76-.41-10.46.68-13.74,4.34-3.22,3.6-2.6,8.72.74,11.97"/>
    </g>
  </svg>
</svg>
