<svg viewBox="0 0 500 500" xmlns="http://www.w3.org/2000/svg" xmlns:xlink="http://www.w3.org/1999/xlink" id="Layer_1" overflow="hidden"><defs></defs><rect x="0" y="0" width="500" height="500" fill="#1E1E1E"/><g><path d="M97.35 82.33 92.73 82.33C90.21 82.33 88.16 83.84 88.16 85.7L88.16 89.45C88.16 91.31 90.21 92.82 92.73 92.82L97.35 92.82C99.87 92.82 101.92 91.31 101.92 89.45L101.92 85.7C101.92 83.84 99.87 82.33 97.35 82.33ZM98.8 89.55C98.8 90.08 98.21 90.52 97.49 90.52L92.49 90.52C91.77 90.52 91.18 90.09 91.18 89.55L91.18 85.71C91.18 85.18 91.77 84.74 92.49 84.74L97.49 84.74C98.21 84.74 98.8 85.17 98.8 85.71L98.8 89.55Z" fill="#FFFFFF"/><path d="M80.69 82.33 76.07 82.33C73.55 82.33 71.5 83.84 71.5 85.7L71.5 89.45C71.5 91.31 73.55 92.82 76.07 92.82L80.69 92.82C83.21 92.82 85.26 91.31 85.26 89.45L85.26 85.7C85.26 83.84 83.21 82.33 80.69 82.33ZM82.15 89.55C82.15 90.08 81.56 90.52 80.84 90.52L75.84 90.52C75.12 90.52 74.53 90.09 74.53 89.55L74.53 85.71C74.53 85.18 75.12 84.74 75.84 84.74L80.84 84.74C81.56 84.74 82.15 85.17 82.15 85.71L82.15 89.55Z" fill="#FFFFFF"/><path d="M64.38 82.33 59.76 82.33C57.24 82.33 55.19 83.84 55.19 85.7L55.19 89.45C55.19 91.31 57.24 92.82 59.76 92.82L64.38 92.82C66.9 92.82 68.95 91.31 68.95 89.45L68.95 85.7C68.95 83.84 66.9 82.33 64.38 82.33ZM65.84 89.55C65.84 90.08 65.25 90.52 64.53 90.52L59.53 90.52C58.81 90.52 58.22 90.09 58.22 89.55L58.22 85.71C58.22 85.18 58.81 84.74 59.53 84.74L64.53 84.74C65.25 84.74 65.84 85.17 65.84 85.71L65.84 89.55Z" fill="#FFFFFF"/><path d="M313.81 82.33 313.81 92.82 311.11 92.82 311.11 88.71 303.44 88.71 303.44 92.82 300.66 92.82 300.66 82.33 303.44 82.33 303.44 86.26 310.98 86.26 311.11 86.26 311.11 82.33 313.81 82.33Z" fill="#FFFFFF"/><path d="M297.44 83.87 297.44 92.77 294.74 92.77 294.74 84.95C294.53 85.09 294.34 85.29 294.17 85.47 292.27 87.53 290.41 89.95 288.43 91.9 287.52 92.79 286.28 93.01 285.06 92.66 284.57 92.52 283.68 91.89 283.68 91.34L283.68 82.35 286.47 82.35 286.47 90.17 286.7 90.05C288.61 88.01 290.4 85.83 292.34 83.83 292.78 83.38 293.37 82.69 293.95 82.49 294.74 82.22 296.4 82.26 297 82.94 297.12 83.08 297.43 83.72 297.43 83.87Z" fill="#FFFFFF"/><path d="M364.99 82.33 364.99 92.82 362.29 92.82 362.29 88.71 354.63 88.71 354.63 92.82 351.84 92.82 351.84 82.33 354.63 82.33 354.63 86.26 362.16 86.26 362.29 86.26 362.29 82.33 364.99 82.33Z" fill="#FFFFFF"/><path d="M348.62 83.87 348.62 92.77 345.92 92.77 345.92 84.95C345.71 85.09 345.52 85.29 345.35 85.47 343.45 87.53 341.59 89.95 339.61 91.9 338.7 92.79 337.46 93.01 336.24 92.66 335.75 92.52 334.86 91.89 334.86 91.34L334.86 82.35 337.65 82.35 337.65 90.17 337.88 90.05C339.79 88.01 341.58 85.83 343.52 83.83 343.96 83.38 344.55 82.69 345.13 82.49 345.92 82.22 347.58 82.26 348.18 82.94 348.3 83.08 348.61 83.72 348.61 83.87Z" fill="#FFFFFF"/><path d="M381.97 83.87 381.97 92.77 379.27 92.77 379.27 84.95C379.06 85.09 378.87 85.29 378.7 85.47 376.8 87.53 374.94 89.95 372.96 91.9 372.05 92.79 370.81 93.01 369.59 92.66 369.1 92.52 368.21 91.89 368.21 91.34L368.21 82.35 371 82.35 371 90.17 371.23 90.05C373.14 88.01 374.93 85.83 376.87 83.83 377.31 83.38 377.9 82.69 378.48 82.49 379.27 82.22 380.93 82.26 381.53 82.94 381.65 83.08 381.96 83.72 381.96 83.87Z" fill="#FFFFFF"/><path d="M431.69 82.33 431.69 92.82 428.99 92.82 428.99 88.71 421.33 88.71 421.33 92.82 418.54 92.82 418.54 82.33 421.33 82.33 421.33 86.26 428.86 86.26 428.99 86.26 428.99 82.33 431.69 82.33Z" fill="#FFFFFF"/><path d="M415.32 83.87 415.32 92.77 412.62 92.77 412.62 84.95C412.41 85.09 412.22 85.29 412.05 85.47 410.15 87.53 408.29 89.95 406.31 91.9 405.4 92.79 404.16 93.01 402.94 92.66 402.45 92.52 401.56 91.89 401.56 91.34L401.56 82.35 404.35 82.35 404.35 90.17 404.58 90.05C406.49 88.01 408.28 85.83 410.22 83.83 410.66 83.38 411.25 82.69 411.83 82.49 412.62 82.22 414.28 82.26 414.88 82.94 415 83.08 415.31 83.72 415.31 83.87Z" fill="#FFFFFF"/><path d="M271.97 82.33 271.97 92.82 269.18 92.82 269.18 84.86 264.17 84.86C263.78 84.86 263.29 85.5 263.15 85.85 262.47 87.58 262.24 91.19 260.76 92.28 260.51 92.46 259.74 92.82 259.47 92.82L257.16 92.82 257.16 90.28 258.68 90.28C258.93 90.28 259.31 89.66 259.4 89.43 260.08 87.77 260.24 84.78 261.42 83.5 261.82 83.07 263.08 82.32 263.64 82.32L271.96 82.32Z" fill="#FFFFFF"/><path d="M254.24 82.33 254.24 92.82 251.45 92.82 251.45 84.86 246.44 84.86C246.05 84.86 245.56 85.5 245.42 85.85 244.74 87.58 244.51 91.19 243.03 92.28 242.78 92.46 242.01 92.82 241.74 92.82L239.43 92.82 239.43 90.28 240.95 90.28C241.2 90.28 241.58 89.66 241.67 89.43 242.35 87.77 242.51 84.78 243.69 83.5 244.09 83.07 245.35 82.32 245.91 82.32L254.23 82.32Z" fill="#FFFFFF"/><path d="M236.42 92.47C236.04 90.85 235.34 88.49 234.87 86.82 234.23 84.54 233.9 82.62 231.43 82.41 230.98 82.37 230.48 82.33 229.98 82.33 229.96 82.33 229.94 82.33 229.92 82.33L229.92 82.33C229.39 82.33 228.88 82.38 228.41 82.42 225.95 82.62 225.62 84.54 224.97 86.83 224.5 88.5 223.73 90.84 223.42 92.48 223.4 92.6 223.38 92.71 223.36 92.83L225.77 92.83 226.41 90.57 229.92 90.6 233.43 90.57 234.07 92.83 236.48 92.83C236.46 92.71 236.44 92.6 236.42 92.48ZM227.03 88.23C227.53 87 227.36 85.06 228.85 84.93 229.06 84.91 229.48 84.9 229.92 84.9 230.36 84.9 230.78 84.92 230.99 84.93 232.48 85.06 232.31 87 232.81 88.23L227.04 88.23Z" fill="#FFFFFF"/><path d="M221.68 82.33 221.68 84.86 215.93 84.86 215.93 92.82 213.06 92.82 213.06 84.86 207.49 84.86 207.49 82.32 221.68 82.32Z" fill="#FFFFFF"/><path d="M204.96 90.28 204.96 92.82 195.25 92.82C194.02 92.82 192.58 91.72 192.18 90.57 191.76 89.38 191.74 85.74 192.18 84.57 192.56 83.53 194.06 82.33 195.17 82.33L204.97 82.33 204.97 84.78 195.87 84.78C195.6 84.78 195.06 85.15 194.92 85.4 194.83 85.55 194.58 86.36 194.83 86.36L203.67 86.36 203.67 88.72 194.7 88.72C194.68 89.12 194.79 89.75 195.09 90.03 195.14 90.07 195.5 90.29 195.53 90.29L204.98 90.29Z" fill="#FFFFFF"/><path d="M165.98 84.32 165.98 92.77 163.11 92.77 163.11 85.01 162.72 84.97 158.67 91.86C158.22 92.49 157.35 92.8 156.49 92.81L156.49 92.81C155.62 92.81 154.74 92.5 154.29 91.86L150.24 84.97 149.85 85.01 149.85 92.77 146.98 92.77 146.98 84.32C146.98 83.32 148.18 82.46 149.12 82.37 150.38 82.24 151.64 82.33 152.46 83.38 153.81 85.12 154.87 87.84 156.15 89.76 156.32 90.01 156.4 90.16 156.49 90.18 156.58 90.18 156.67 90.03 156.84 89.76 158.12 87.84 159.18 85.12 160.53 83.38 161.35 82.33 162.6 82.24 163.87 82.37 164.8 82.46 166.01 83.32 166.01 84.32Z" fill="#FFFFFF"/><path d="M188.48 84.32 188.48 92.77 185.61 92.77 185.61 85.01 185.22 84.97 181.17 91.86C180.72 92.49 179.85 92.8 178.99 92.81L178.99 92.81C178.12 92.81 177.24 92.5 176.79 91.86L172.74 84.97 172.35 85.01 172.35 92.77 169.48 92.77 169.48 84.32C169.48 83.32 170.68 82.46 171.62 82.37 172.88 82.24 174.14 82.33 174.96 83.38 176.31 85.12 177.37 87.84 178.65 89.76 178.82 90.01 178.9 90.16 178.99 90.18 179.08 90.18 179.17 90.03 179.34 89.76 180.62 87.84 181.68 85.12 183.03 83.38 183.85 82.33 185.1 82.24 186.37 82.37 187.3 82.46 188.51 83.32 188.51 84.32Z" fill="#FFFFFF"/><path d="M142.69 83.87 142.69 92.77 139.99 92.77 139.99 84.95C139.78 85.09 139.59 85.29 139.42 85.47 137.52 87.53 135.66 89.95 133.68 91.9 132.77 92.79 131.53 93.01 130.31 92.66 129.82 92.52 128.93 91.89 128.93 91.34L128.93 82.35 131.72 82.35 131.72 90.17 131.95 90.05C133.86 88.01 135.65 85.83 137.59 83.83 138.03 83.38 138.62 82.69 139.2 82.49 139.99 82.22 141.65 82.26 142.25 82.94 142.37 83.08 142.68 83.72 142.68 83.87Z" fill="#FFFFFF"/><path d="M126.24 92.82 122.45 92.82 118.53 88.88 114.61 92.82 110.82 92.82 116.22 87.52 110.91 82.33 114.7 82.33 118.61 86.26 122.36 82.33 126.06 82.33 120.92 87.53 126.24 92.82Z" fill="#FFFFFF"/><path d="M316.83 82.33 319.94 82.33 323.1 86.08 323.1 82.33 325.61 82.33 325.49 86.08 328.72 82.33 331.81 82.33 327.44 87.49 332.06 92.82 328.75 92.82 325.59 88.88 325.59 92.82 323.13 92.82 323.13 89 319.89 92.82 316.61 92.82 321.27 87.49 316.82 82.33" fill="#FFFFFF"/><path d="M395.62 82.39 385.19 82.33 385.19 92.82 388.48 92.82 388.48 89.47 395.8 89.47C395.8 89.47 397.6 89.33 398.24 88.18 398.3 88.06 398.33 87.93 398.33 87.8L398.33 84.28C398.33 84.2 398.32 84.12 398.29 84.04 398.17 83.68 397.67 82.76 395.61 82.38ZM395.16 86.57C395.16 86.85 394.87 87.08 394.52 87.08L388.39 87.08 388.39 84.78 394.52 84.78C394.87 84.78 395.16 85.01 395.16 85.29L395.16 86.57Z" fill="#FFFFFF"/><path d="M434.48 92.82 437.67 92.82 437.67 84.8 444.81 84.8 444.81 82.32 436.89 82.32C435.56 82.32 434.48 83.1 434.48 84.06L434.48 92.81Z" fill="#FFFFFF"/></g><g><path d="M448.87 237.89 448.87 255.31 444.37 255.31 444.37 248.48 431.6 248.48 431.6 255.31 426.95 255.31 426.95 237.89 431.6 237.89 431.6 244.42 444.15 244.42 444.37 244.42 444.37 237.89 448.87 237.89Z" fill="#FFFFFF"/><path d="M421.58 240.35 421.58 255.23 417.08 255.23 417.08 242.17C416.73 242.41 416.42 242.73 416.14 243.04 412.97 246.49 409.86 250.53 406.56 253.79 405.04 255.28 402.98 255.64 400.94 255.05 400.12 254.82 398.65 253.76 398.65 252.84L398.65 237.82 403.3 237.82 403.3 250.88 403.69 250.69C406.87 247.28 409.86 243.64 413.1 240.29 413.83 239.54 414.81 238.38 415.79 238.05 417.11 237.6 419.88 237.66 420.87 238.81 421.07 239.04 421.59 240.12 421.59 240.37Z" fill="#FFFFFF"/><path d="M392.34 237.89 392.34 255.31 387.69 255.31 387.69 242.1 379.34 242.1C378.69 242.1 377.87 243.17 377.64 243.74 376.5 246.61 376.13 252.61 373.65 254.41 373.23 254.71 371.96 255.31 371.5 255.31L367.65 255.31 367.65 251.1 370.19 251.1C370.61 251.1 371.24 250.06 371.39 249.69 372.52 246.93 372.79 241.97 374.76 239.85 375.42 239.14 377.53 237.89 378.47 237.89L392.33 237.89Z" fill="#FFFFFF"/><path d="M362.79 237.89 362.79 255.31 358.14 255.31 358.14 242.1 349.79 242.1C349.14 242.1 348.32 243.17 348.09 243.74 346.95 246.61 346.58 252.61 344.1 254.41 343.68 254.71 342.41 255.31 341.95 255.31L338.1 255.31 338.1 251.1 340.64 251.1C341.06 251.1 341.69 250.06 341.84 249.69 342.97 246.93 343.24 241.97 345.21 239.85 345.87 239.14 347.98 237.89 348.91 237.89L362.77 237.89Z" fill="#FFFFFF"/><path d="M334.68 254.72C333.94 252.01 332.57 248.06 331.66 245.26 330.4 241.44 329.76 238.22 324.96 237.88 324.08 237.82 323.11 237.75 322.12 237.74 322.08 237.74 322.04 237.74 322 237.74L322 237.74C320.98 237.75 319.97 237.82 319.05 237.89 314.25 238.23 313.6 241.45 312.35 245.27 311.43 248.07 309.93 251.99 309.32 254.73 309.28 254.93 309.23 255.12 309.2 255.32L313.9 255.32 315.15 251.54 322 251.59 328.85 251.54 330.1 255.32 334.8 255.32C334.77 255.12 334.73 254.93 334.68 254.73ZM316.37 247.61C317.34 245.56 317.02 242.3 319.92 242.09 320.33 242.06 321.15 242.03 322 242.03 322.85 242.03 323.67 242.06 324.08 242.09 326.98 242.3 326.66 245.56 327.63 247.61L316.37 247.61Z" fill="#FFFFFF"/><path d="M308.5 237.89 308.5 242.1 298.92 242.1 298.92 255.31 294.13 255.31 294.13 242.1 284.84 242.1 284.84 237.89 308.5 237.89Z" fill="#FFFFFF"/><path d="M280.63 251.1 280.63 255.31 264.45 255.31C262.4 255.31 260 253.48 259.33 251.58 258.64 249.6 258.59 243.57 259.32 241.62 259.96 239.9 262.46 237.9 264.31 237.9L280.64 237.9 280.64 241.96 265.47 241.96C265.02 241.96 264.12 242.57 263.88 242.99 263.74 243.24 263.31 244.58 263.72 244.58L278.45 244.58 278.45 248.5 263.5 248.5C263.47 249.16 263.65 250.21 264.15 250.68 264.23 250.75 264.84 251.11 264.88 251.11L280.63 251.11Z" fill="#FFFFFF"/><path d="M215.66 241.08 215.66 255.23 210.87 255.23 210.87 242.24 210.22 242.17 203.47 253.71C202.71 254.76 201.27 255.29 199.83 255.31L199.83 255.31C198.38 255.31 196.92 254.78 196.15 253.72L189.4 242.18 188.75 242.25 188.75 255.24 183.96 255.24 183.96 241.09C183.96 239.41 185.97 237.98 187.52 237.83 189.63 237.62 191.72 237.76 193.08 239.52 195.33 242.43 197.1 247 199.23 250.21 199.51 250.64 199.65 250.88 199.8 250.91 199.95 250.9 200.09 250.65 200.39 250.2 202.52 246.99 204.29 242.42 206.54 239.51 207.9 237.74 209.99 237.6 212.1 237.82 213.65 237.98 215.66 239.41 215.66 241.08Z" fill="#FFFFFF"/><path d="M253.17 241.08 253.17 255.23 248.38 255.23 248.38 242.24 247.73 242.17 240.98 253.71C240.22 254.76 238.78 255.29 237.34 255.31L237.34 255.31C235.89 255.31 234.43 254.78 233.66 253.72L226.91 242.18 226.26 242.25 226.26 255.24 221.47 255.24 221.47 241.09C221.47 239.41 223.48 237.98 225.03 237.83 227.14 237.62 229.23 237.76 230.59 239.52 232.84 242.43 234.61 247 236.74 250.21 237.02 250.64 237.16 250.88 237.31 250.91 237.46 250.9 237.6 250.65 237.9 250.2 240.03 246.99 241.8 242.42 244.05 239.51 245.41 237.74 247.5 237.6 249.61 237.82 251.16 237.98 253.17 239.41 253.17 241.08Z" fill="#FFFFFF"/><path d="M176.85 240.35 176.85 255.23 172.35 255.23 172.35 242.17C172 242.41 171.69 242.73 171.41 243.04 168.24 246.49 165.13 250.53 161.83 253.79 160.31 255.28 158.25 255.64 156.21 255.05 155.39 254.82 153.92 253.76 153.92 252.84L153.92 237.82 158.57 237.82 158.57 250.88 158.96 250.69C162.14 247.28 165.13 243.64 168.37 240.29 169.1 239.54 170.08 238.38 171.06 238.05 172.38 237.6 175.15 237.66 176.14 238.81 176.34 239.04 176.86 240.12 176.86 240.37Z" fill="#FFFFFF"/><path d="M149.41 255.31 143.1 255.31 136.57 248.77 130.03 255.31 123.72 255.31 132.71 246.5 123.86 237.89 130.18 237.89 136.71 244.42 142.95 237.89 149.12 237.89 140.55 246.52 149.41 255.31Z" fill="#FFFFFF"/><path d="M66.14 282.19C55.14 272.95 48.13 258.7 52.38 244.56 60.4 217.87 93.55 207.73 118.63 212.55 120.11 212.83 121.57 213.21 123.01 213.62L116.03 226.54C113.77 226.06 111.49 225.61 109.19 225.37 89.06 223.25 63.67 230.85 57.29 252.25 54.14 262.81 59.41 274.45 67.09 282.19" fill="#FFFFFF"/><path d="M70.39 282.19C69.79 281.71 69.19 281.24 68.63 280.72 59.78 272.51 57.71 259.53 63.5 248.97 72.67 232.25 95.67 228.48 113.06 232.15L107.14 243.13C105.22 242.81 103.28 242.54 101.33 242.38 87.44 241.26 69.31 245.89 65.01 260.77 62.79 268.45 65.45 276.75 71.17 282.19" fill="#FFFFFF"/><path d="M74.38 282.19C73.64 281.6 72.55 280.49 72.17 280.07 64.47 271.47 66.57 259.53 75.8 253.03 83.84 247.37 94.94 246.36 104.42 248.45L100.11 256.36C98.83 256.12 97.56 255.92 96.28 255.81 88.57 255.14 79.37 256.9 74.06 262.82 68.75 268.74 69.85 276.92 75.25 282.18" fill="#FFFFFF"/><path d="M77.84 282.19C77.38 281.83 76.71 281.14 76.47 280.88 71.71 275.56 73.01 268.18 78.72 264.16 83.69 260.66 91.51 260.28 97.37 261.57L94.77 266.49C93.99 266.25 92.18 265.94 91.38 265.87 86.62 265.46 80.92 266.55 77.64 270.21 74.42 273.81 75.04 278.93 78.38 282.18" fill="#FFFFFF"/></g><path d="M240.66 406.41 235.73 406.41C233.04 406.41 230.85 408.02 230.85 410.01L230.85 414.02C230.85 416.01 233.03 417.62 235.73 417.62L240.66 417.62C243.35 417.62 245.54 416.01 245.54 414.02L245.54 410.01C245.54 408.02 243.36 406.41 240.66 406.41ZM242.21 414.12C242.21 414.69 241.58 415.15 240.81 415.15L235.47 415.15C234.7 415.15 234.07 414.69 234.07 414.12L234.07 410.02C234.07 409.45 234.7 408.99 235.47 408.99L240.81 408.99C241.58 408.99 242.21 409.45 242.21 410.02L242.21 414.12Z" fill="#FFFFFF"/><path d="M310.62 417.24C310.21 415.51 309.47 412.99 308.97 411.21 308.28 408.77 307.93 406.72 305.3 406.51 304.82 406.47 304.29 406.43 303.75 406.42 303.73 406.42 303.71 406.42 303.69 406.42L303.69 406.42C303.13 406.42 302.58 406.47 302.07 406.51 299.44 406.72 299.09 408.78 298.4 411.21 297.9 412.99 297.08 415.49 296.74 417.24 296.72 417.36 296.69 417.49 296.67 417.61L299.24 417.61 299.92 415.2 303.67 415.23 307.42 415.2 308.1 417.61 310.67 417.61C310.65 417.48 310.63 417.36 310.6 417.24ZM300.6 412.71C301.13 411.4 300.96 409.33 302.54 409.19 302.77 409.17 303.21 409.15 303.68 409.15 304.15 409.15 304.6 409.17 304.82 409.19 306.41 409.33 306.23 411.4 306.76 412.71L300.6 412.71Z" fill="#FFFFFF"/><path d="M227.24 408.54 227.24 417.56 224.17 417.56 224.17 409.28 223.75 409.23 219.43 416.59C218.94 417.26 218.02 417.6 217.1 417.61L217.1 417.61C216.17 417.61 215.24 417.27 214.75 416.6L210.43 409.24 210.01 409.29 210.01 417.57 206.94 417.57 206.94 408.55C206.94 407.48 208.23 406.57 209.22 406.47 210.57 406.33 211.91 406.42 212.78 407.55 214.22 409.41 215.35 412.32 216.72 414.36 216.9 414.63 216.99 414.79 217.08 414.81 217.18 414.81 217.27 414.65 217.46 414.36 218.83 412.31 219.96 409.4 221.4 407.55 222.27 406.42 223.61 406.34 224.96 406.47 225.95 406.57 227.24 407.48 227.24 408.55Z" fill="#FFFFFF"/><path d="M189.32 417.67 191.54 417.67 191.54 412.42 196.51 412.42 196.51 410.8 191 410.8C190.08 410.8 189.33 411.31 189.33 411.94L189.33 417.67Z" fill="#FFFFFF"/><rect x="197.89" y="414.89" rx="0.57" ry="0.57" width="3.2" height="2.72" fill="#FFFFFF"/><path d="M260.87 406.47 260.87 408.95 252.64 408.95C252.27 408.95 251.97 409.25 251.97 409.62L251.97 414.48C251.97 414.85 252.27 415.15 252.64 415.15L260.87 415.15 260.87 417.66 252.29 417.66C250.55 417.66 249.14 416.25 249.14 414.51L249.14 409.62C249.14 407.88 250.55 406.47 252.29 406.47L260.87 406.47Z" fill="#FFFFFF"/><path d="M264.47 406.41 267.34 406.41 267.34 410.84 269.21 410.84 273.37 406.41 277.07 406.41 271.67 411.91 277.2 417.61 273.5 417.61 269.32 413.24 267.34 413.24 267.34 417.61 264.47 417.61 264.47 406.41Z" fill="#FFFFFF"/><path d="M293.07 410.06 293.07 409.36C293.07 407.73 291.75 406.42 290.13 406.42L280.8 406.42 280.8 417.62 290.11 417.62C291.74 417.62 293.05 416.3 293.05 414.68L293.05 413.8C293.05 413.2 292.81 412.62 292.39 412.2L292.13 411.94 292.4 411.67C292.83 411.24 293.06 410.67 293.06 410.07ZM290.29 414.59C290.29 414.87 290.07 415.09 289.79 415.09L283.51 415.09 283.51 413.15 289.79 413.15C290.07 413.15 290.29 413.37 290.29 413.65L290.29 414.59ZM290.29 410.39C290.29 410.67 290.07 410.89 289.79 410.89L283.51 410.89 283.51 408.95 289.79 408.95C290.07 408.95 290.29 409.17 290.29 409.45L290.29 410.39Z" fill="#FFFFFF"/></svg>